<svg width="770" height="458" viewBox="0 0 770 458" fill="none" xmlns="http://www.w3.org/2000/svg">
<g clip-path="url(#clip0_1_79)">
<path fill-rule="evenodd" clip-rule="evenodd" d="M384 229C384 142.719 440.036 69.5927 517.522 44.3872C479.575 16.4844 432.713 0 382 0C255.527 0 153 102.527 153 229C153 355.473 255.527 458 382 458C432.713 458 479.575 441.516 517.522 413.613C440.036 388.407 384 315.281 384 229ZM199.781 224.5C196.031 232.583 194.01 236.625 193.719 236.625C193.302 236.625 191.417 232.656 188.062 224.719C184.708 216.781 182.5 212.052 181.438 210.531C180.396 208.99 179.333 208.021 178.25 207.625C177.167 207.208 175.885 207 174.406 207C170.552 207 168.625 207.333 168.625 208C168.625 208.542 169.146 209.333 170.188 210.375C171.25 211.417 171.927 212.417 172.219 213.375C172.51 214.312 172.656 215.99 172.656 218.406C172.656 220.823 172.49 225.417 172.156 232.188C171.823 238.938 171.552 242.688 171.344 243.438C171.156 244.167 170.469 245.042 169.281 246.062C168.115 247.062 167.531 247.781 167.531 248.219C167.531 249.094 169.25 249.531 172.688 249.531H174.406C175.427 249.531 176.26 249.375 176.906 249.062C177.552 248.75 177.875 248.354 177.875 247.875C177.875 247.396 177.698 246.427 177.344 244.969C177.01 243.51 176.771 242.26 176.625 241.219C176.479 240.177 176.406 237.385 176.406 232.844C176.406 222.615 176.698 217.5 177.281 217.5C177.99 217.5 180.385 222.51 184.469 232.531C188.573 242.531 191.083 247.531 192 247.531C193.312 247.531 194.365 246.802 195.156 245.344C195.969 243.865 198.146 238.896 201.688 230.438C205.229 221.979 207.219 217.75 207.656 217.75C208.531 217.75 208.969 224.583 208.969 238.25C208.969 240.125 208.74 242.01 208.281 243.906C207.823 245.781 207.594 247.021 207.594 247.625L207.906 248.312C208.656 249.083 210.5 249.469 213.438 249.469C216.375 249.469 218.344 249.24 219.344 248.781L220.125 248.219C220.125 247.865 219.552 247.156 218.406 246.094C217.26 245.01 216.583 243.531 216.375 241.656C215.833 236.865 215.562 229.24 215.562 218.781C215.562 216.323 215.688 214.562 215.938 213.5C216.208 212.417 216.656 211.469 217.281 210.656L218.25 209.625L219 208.688C219 207.521 217.74 206.938 215.219 206.938C212.719 206.938 210.896 207.177 209.75 207.656C208.604 208.115 207.594 209.01 206.719 210.344C205.844 211.677 203.531 216.396 199.781 224.5ZM238.246 228.562V226.875C238.246 224.396 238.6 221.896 239.309 219.375C240.6 214.833 242.85 211.812 246.059 210.312C247.6 209.604 249.142 209.24 250.684 209.219C254.955 210.573 258.861 214.271 262.402 220.312C263.111 222.771 263.465 225.385 263.465 228.156V229.875C263.465 232.396 263.152 234.771 262.527 237C261.902 239.229 261.152 241.01 260.277 242.344C258.048 245.802 255.08 247.531 251.371 247.531H250.871C249.163 247.531 247.496 247.052 245.871 246.094C244.267 245.135 242.923 243.833 241.84 242.188C239.444 238.542 238.246 234 238.246 228.562ZM272.027 228.656V227.188C272.027 224.292 271.465 221.417 270.34 218.562C269.236 215.708 267.788 213.354 265.996 211.5C262.392 207.771 257.621 205.906 251.684 205.906H250.965C248.194 205.906 245.517 206.469 242.934 207.594C240.35 208.719 238.152 210.281 236.34 212.281C234.527 214.281 233.121 216.688 232.121 219.5C231.121 222.292 230.621 225.135 230.621 228.031V229.5C230.621 232.333 231.142 235.188 232.184 238.062C233.246 240.938 234.632 243.26 236.34 245.031C238.048 246.781 240.069 248.198 242.402 249.281C244.757 250.365 247.277 250.906 249.965 250.906H251.434C254.142 250.906 256.84 250.333 259.527 249.188C264.798 246.938 268.465 242.917 270.527 237.125C271.527 234.312 272.027 231.49 272.027 228.656ZM290.086 228.562V226.875C290.086 224.396 290.44 221.896 291.149 219.375C292.44 214.833 294.69 211.812 297.899 210.312C299.44 209.604 300.982 209.24 302.524 209.219C306.795 210.573 310.701 214.271 314.242 220.312C314.951 222.771 315.305 225.385 315.305 228.156V229.875C315.305 232.396 314.992 234.771 314.367 237C313.742 239.229 312.992 241.01 312.117 242.344C309.888 245.802 306.92 247.531 303.211 247.531H302.711C301.003 247.531 299.336 247.052 297.711 246.094C296.107 245.135 294.763 243.833 293.68 242.188C291.284 238.542 290.086 234 290.086 228.562ZM323.867 228.656V227.188C323.867 224.292 323.305 221.417 322.18 218.562C321.076 215.708 319.628 213.354 317.836 211.5C314.232 207.771 309.461 205.906 303.524 205.906H302.805C300.034 205.906 297.357 206.469 294.774 207.594C292.19 208.719 289.992 210.281 288.18 212.281C286.367 214.281 284.961 216.688 283.961 219.5C282.961 222.292 282.461 225.135 282.461 228.031V229.5C282.461 232.333 282.982 235.188 284.024 238.062C285.086 240.938 286.472 243.26 288.18 245.031C289.888 246.781 291.909 248.198 294.242 249.281C296.597 250.365 299.117 250.906 301.805 250.906H303.274C305.982 250.906 308.68 250.333 311.367 249.188C316.638 246.938 320.305 242.917 322.367 237.125C323.367 234.312 323.867 231.49 323.867 228.656ZM373.02 248.594C373.249 247.99 373.364 245.896 373.364 242.312V233.875L373.426 227.781C373.426 220.073 373.562 215.573 373.833 214.281C374.103 212.99 374.666 211.927 375.52 211.094C377.103 209.531 377.895 208.719 377.895 208.656C377.895 207.99 377.645 207.542 377.145 207.312C376.291 206.917 374.541 206.719 371.895 206.719H368.926C366.697 206.719 365.583 207.229 365.583 208.25C365.583 208.333 366.03 208.875 366.926 209.875C367.843 210.854 368.437 212.094 368.708 213.594C368.999 215.094 369.145 219.479 369.145 226.75C369.145 234.021 368.812 237.656 368.145 237.656C367.937 237.656 366.239 235.479 363.051 231.125L360.395 227.5C359.103 225.688 356.77 222.552 353.395 218.094C350.041 213.615 347.853 210.896 346.833 209.938C345.833 208.979 344.676 208.229 343.364 207.688C342.051 207.146 340.26 206.875 337.989 206.875C335.739 206.875 334.614 207.427 334.614 208.531C334.614 208.698 335.208 209.24 336.395 210.156C337.583 211.052 338.301 211.823 338.551 212.469C339.093 213.844 339.364 216.75 339.364 221.188L339.395 225.75L339.301 230.406C339.301 237.906 339.135 242.281 338.801 243.531C338.468 244.76 337.655 245.74 336.364 246.469C335.093 247.177 334.458 247.906 334.458 248.656C334.458 249.406 335.937 249.781 338.895 249.781H340.333C344.562 249.781 346.676 249.333 346.676 248.438C346.676 248.083 346.322 247.396 345.614 246.375C344.926 245.333 344.478 244.271 344.27 243.188C343.666 240.167 343.364 235 343.364 227.688C343.364 220.375 343.583 216.719 344.02 216.719C344.583 216.719 348.072 221.188 354.489 230.125C355.176 231.104 356.447 232.969 358.301 235.719C360.176 238.469 362.103 241.104 364.083 243.625L365.02 244.781C367.624 247.906 369.78 249.469 371.489 249.469C372.28 249.469 372.791 249.177 373.02 248.594Z" fill="white"/>
<path d="M769.5 229C769.5 335.87 683.312 422.5 577 422.5C470.688 422.5 384.5 335.87 384.5 229C384.5 122.13 470.688 35.5 577 35.5C683.312 35.5 769.5 122.13 769.5 229Z" stroke="white"/>
<path d="M442.855 206.188C448.813 206.188 453.105 206.677 455.73 207.656C456.313 207.865 456.876 208.354 457.417 209.125C457.959 209.896 458.23 211.229 458.23 213.125C458.23 215.021 457.886 216.26 457.199 216.844L456.574 217.188C456.011 217.188 455.084 216.458 453.792 215C450.792 211.667 447.188 210 442.98 210C438.792 210 435.438 211.635 432.917 214.906C430.417 218.177 429.167 222.531 429.167 227.969C429.167 233.385 430.48 237.802 433.105 241.219C435.73 244.656 439.178 246.375 443.449 246.375C446.22 246.375 448.23 245.792 449.48 244.625C450.73 243.458 451.355 241.146 451.355 237.688C451.355 236.354 451.042 235.188 450.417 234.188C450.251 233.917 449.834 233.469 449.167 232.844C448.522 232.198 448.199 231.792 448.199 231.625C448.199 230.729 450.251 230.281 454.355 230.281C456.98 230.281 458.72 230.427 459.574 230.719C460.428 230.99 460.855 231.51 460.855 232.281C460.855 232.427 460.584 232.906 460.042 233.719C459.501 234.51 459.188 235.042 459.105 235.312C459.022 235.583 458.845 237.375 458.574 240.688C458.324 243.979 457.959 245.958 457.48 246.625C457.022 247.292 455.865 247.906 454.011 248.469C449.282 249.927 445.792 250.656 443.542 250.656H442.292C439.376 250.656 436.626 250.156 434.042 249.156C431.459 248.135 429.261 246.719 427.449 244.906C425.636 243.094 424.178 240.76 423.074 237.906C421.97 235.052 421.417 232.125 421.417 229.125V227.781C421.417 224.844 422.001 221.938 423.167 219.062C425.355 213.688 429.001 209.969 434.105 207.906C436.938 206.76 439.855 206.188 442.855 206.188ZM494.851 231.469V231.281C494.851 229.323 493.174 224.427 489.82 216.594C489.237 215.24 488.935 214.562 488.914 214.562L488.007 216.656C484.549 224.719 482.82 229.615 482.82 231.344C482.82 231.635 482.997 231.792 483.351 231.812C483.726 231.833 484.007 231.844 484.195 231.844L486.632 231.906H488.851L489.07 231.875C492.924 231.875 494.851 231.74 494.851 231.469ZM468.789 248.125C468.789 247.604 469.382 247 470.57 246.312C471.757 245.625 472.632 244.75 473.195 243.688C473.757 242.625 474.549 240.708 475.57 237.938C476.591 235.146 477.976 231.635 479.726 227.406C481.497 223.177 482.893 219.385 483.914 216.031C484.955 212.656 485.664 210.521 486.039 209.625C486.893 207.583 488.101 206.562 489.664 206.562H490.539C490.935 206.562 491.424 206.781 492.007 207.219C493.195 208.115 494.435 210.031 495.726 212.969C496.164 213.969 496.82 215.688 497.695 218.125C498.57 220.542 500.32 225.281 502.945 232.344C505.57 239.406 507.039 243.25 507.351 243.875C507.872 244.958 508.757 245.833 510.007 246.5C511.257 247.146 511.882 247.667 511.882 248.062C511.882 248.938 511.362 249.479 510.32 249.688C509.612 249.833 507.82 249.906 504.945 249.906L503.132 249.938C499.278 249.938 497.351 249.417 497.351 248.375C497.351 248.188 497.591 247.74 498.07 247.031C498.57 246.323 498.82 245.427 498.82 244.344C498.82 243.26 498.424 241.708 497.632 239.688C496.862 237.667 496.205 236.417 495.664 235.938C495.143 235.458 492.882 235.219 488.882 235.219C484.882 235.219 482.549 235.438 481.882 235.875C481.216 236.312 480.497 237.49 479.726 239.406C478.955 241.323 478.57 242.885 478.57 244.094C478.57 245.281 478.935 246.333 479.664 247.25C480.414 248.167 480.789 248.646 480.789 248.688C480.789 249.438 479.507 249.812 476.945 249.812C474.403 249.812 472.403 249.719 470.945 249.531C469.507 249.323 468.789 248.854 468.789 248.125ZM521.254 249.594C520.65 249.323 520.347 248.604 520.347 247.438C520.347 246.271 524.17 240.167 531.816 229.125C539.483 218.062 543.316 212.146 543.316 211.375C543.316 210.583 541.972 210.188 539.285 210.188C534.722 210.188 531.275 210.583 528.941 211.375C527.691 211.792 526.587 212.552 525.629 213.656C523.733 215.823 522.691 216.906 522.504 216.906C521.42 216.906 520.879 216.083 520.879 214.438C520.879 211.083 521.15 208.917 521.691 207.938C522.254 206.958 523.483 206.469 525.379 206.469H537.722L538.972 206.5C539.806 206.521 540.629 206.531 541.441 206.531L545.129 206.562C548.587 206.562 550.587 206.594 551.129 206.656C552.525 206.823 553.222 207.271 553.222 208C553.222 209.333 552.389 211.323 550.722 213.969C550.597 214.156 547.181 219.281 540.472 229.344C533.785 239.385 530.441 244.688 530.441 245.25C530.441 246.083 531.775 246.5 534.441 246.5C540.629 246.5 544.827 246.031 547.035 245.094C548.368 244.531 549.597 243.406 550.722 241.719C551.868 240.01 552.868 239.156 553.722 239.156C554.222 239.156 554.472 239.906 554.472 241.406C554.472 245.219 553.962 247.75 552.941 249C552.316 249.771 550.629 250.156 547.879 250.156H539.379L526.004 250C523.462 250 521.879 249.865 521.254 249.594ZM590.531 206.469C594.26 206.469 596.125 208.562 596.125 212.75C596.125 213.854 595.885 214.406 595.406 214.406C595.135 214.406 594.49 214.104 593.469 213.5C592.469 212.875 591.635 212.448 590.969 212.219C588.01 211.198 585.385 210.688 583.094 210.688C580.802 210.688 579.229 211.25 578.375 212.375C577.188 213.938 576.594 216.812 576.594 221C576.594 222.5 577.104 223.615 578.125 224.344C579.146 225.073 580.312 225.438 581.625 225.438C582.958 225.438 584.302 224.99 585.656 224.094C587.031 223.177 587.729 222.719 587.75 222.719C588.792 222.719 589.5 223.125 589.875 223.938C590.271 224.75 590.469 226.073 590.469 227.906C590.469 231.135 589.729 232.75 588.25 232.75C587.854 232.75 587.031 232.25 585.781 231.25C584.531 230.229 583.208 229.719 581.812 229.719C579.417 229.719 577.823 230.229 577.031 231.25C576.51 231.917 576.25 233.917 576.25 237.25C576.25 240.583 576.844 243.021 578.031 244.562C578.698 245.417 580.292 245.844 582.812 245.844C585.333 245.844 588.271 245.302 591.625 244.219C592.562 243.927 593.312 243.583 593.875 243.188C594.438 242.792 595.01 242.375 595.594 241.938C596.177 241.479 596.542 241.25 596.688 241.25C597.396 241.25 597.75 241.604 597.75 242.312V243.312C597.75 244.917 597.469 246.24 596.906 247.281C596.365 248.302 595.865 248.958 595.406 249.25C594.552 249.792 591.156 250.062 585.219 250.062H581.094L579.719 250.031C571.865 250.031 567.333 249.948 566.125 249.781C564.917 249.594 564.312 249.125 564.312 248.375C564.312 247.896 564.875 247.292 566 246.562C567.125 245.833 567.854 244.917 568.188 243.812C568.521 242.708 568.688 238.385 568.688 230.844L568.812 218.625C568.812 214.625 568.562 212.146 568.062 211.188C567.833 210.75 567.188 210.25 566.125 209.688C565.062 209.125 564.531 208.625 564.531 208.188C564.531 207.354 565.208 206.833 566.562 206.625C567.125 206.542 571.552 206.5 579.844 206.5L589.219 206.469H590.531ZM644.34 213.188V214.156C644.34 215.865 643.83 216.719 642.809 216.719C642.517 216.719 641.84 216.01 640.777 214.594C639.736 213.156 638.673 212.135 637.59 211.531C636.527 210.927 635.142 210.625 633.434 210.625C631.746 210.625 630.663 210.812 630.184 211.188C629.725 211.562 629.392 212.323 629.184 213.469C628.996 214.615 628.902 219.583 628.902 228.375C628.902 237.167 629.048 242.219 629.34 243.531C629.652 244.844 630.455 245.958 631.746 246.875C633.038 247.792 633.684 248.552 633.684 249.156C633.684 249.74 632.705 250.031 630.746 250.031L629.684 250L627.621 249.969C626.913 249.948 626.225 249.938 625.559 249.938L622.527 249.906C619.882 249.906 618.194 249.844 617.465 249.719C616.757 249.573 616.402 249.146 616.402 248.438C616.402 248.083 617.069 247.479 618.402 246.625C619.757 245.771 620.6 244.646 620.934 243.25C621.288 241.833 621.465 236.562 621.465 227.438C621.465 218.312 621.34 213.302 621.09 212.406C620.757 211.24 619.59 210.656 617.59 210.656C615.611 210.656 614.08 210.979 612.996 211.625C611.913 212.25 610.871 213.312 609.871 214.812C608.871 216.312 607.955 217.062 607.121 217.062C606.496 217.062 606.184 216.49 606.184 215.344V214.406C606.184 209.927 606.569 207.417 607.34 206.875C607.632 206.667 613.788 206.562 625.809 206.562L640.684 206.5C642.246 206.5 643.246 206.906 643.684 207.719C644.121 208.531 644.34 210.354 644.34 213.188ZM689.555 213.188V214.156C689.555 215.865 689.045 216.719 688.024 216.719C687.732 216.719 687.055 216.01 685.992 214.594C684.951 213.156 683.888 212.135 682.805 211.531C681.742 210.927 680.357 210.625 678.649 210.625C676.961 210.625 675.878 210.812 675.399 211.188C674.94 211.562 674.607 212.323 674.399 213.469C674.211 214.615 674.117 219.583 674.117 228.375C674.117 237.167 674.263 242.219 674.555 243.531C674.867 244.844 675.67 245.958 676.961 246.875C678.253 247.792 678.899 248.552 678.899 249.156C678.899 249.74 677.92 250.031 675.961 250.031L674.899 250L672.836 249.969C672.128 249.948 671.44 249.938 670.774 249.938L667.742 249.906C665.097 249.906 663.409 249.844 662.68 249.719C661.972 249.573 661.617 249.146 661.617 248.438C661.617 248.083 662.284 247.479 663.617 246.625C664.972 245.771 665.815 244.646 666.149 243.25C666.503 241.833 666.68 236.562 666.68 227.438C666.68 218.312 666.555 213.302 666.305 212.406C665.972 211.24 664.805 210.656 662.805 210.656C660.826 210.656 659.295 210.979 658.211 211.625C657.128 212.25 656.086 213.312 655.086 214.812C654.086 216.312 653.17 217.062 652.336 217.062C651.711 217.062 651.399 216.49 651.399 215.344V214.406C651.399 209.927 651.784 207.417 652.555 206.875C652.847 206.667 659.003 206.562 671.024 206.562L685.899 206.5C687.461 206.5 688.461 206.906 688.899 207.719C689.336 208.531 689.555 210.354 689.555 213.188ZM724.426 206.469C728.155 206.469 730.02 208.562 730.02 212.75C730.02 213.854 729.78 214.406 729.301 214.406C729.03 214.406 728.385 214.104 727.364 213.5C726.364 212.875 725.53 212.448 724.864 212.219C721.905 211.198 719.28 210.688 716.989 210.688C714.697 210.688 713.124 211.25 712.27 212.375C711.083 213.938 710.489 216.812 710.489 221C710.489 222.5 710.999 223.615 712.02 224.344C713.041 225.073 714.208 225.438 715.52 225.438C716.853 225.438 718.197 224.99 719.551 224.094C720.926 223.177 721.624 222.719 721.645 222.719C722.687 222.719 723.395 223.125 723.77 223.938C724.166 224.75 724.364 226.073 724.364 227.906C724.364 231.135 723.624 232.75 722.145 232.75C721.749 232.75 720.926 232.25 719.676 231.25C718.426 230.229 717.103 229.719 715.708 229.719C713.312 229.719 711.718 230.229 710.926 231.25C710.405 231.917 710.145 233.917 710.145 237.25C710.145 240.583 710.739 243.021 711.926 244.562C712.593 245.417 714.187 245.844 716.708 245.844C719.228 245.844 722.166 245.302 725.52 244.219C726.458 243.927 727.208 243.583 727.77 243.188C728.333 242.792 728.905 242.375 729.489 241.938C730.072 241.479 730.437 241.25 730.583 241.25C731.291 241.25 731.645 241.604 731.645 242.312V243.312C731.645 244.917 731.364 246.24 730.801 247.281C730.26 248.302 729.76 248.958 729.301 249.25C728.447 249.792 725.051 250.062 719.114 250.062H714.989L713.614 250.031C705.76 250.031 701.228 249.948 700.02 249.781C698.812 249.594 698.208 249.125 698.208 248.375C698.208 247.896 698.77 247.292 699.895 246.562C701.02 245.833 701.749 244.917 702.083 243.812C702.416 242.708 702.583 238.385 702.583 230.844L702.708 218.625C702.708 214.625 702.458 212.146 701.958 211.188C701.728 210.75 701.083 210.25 700.02 209.688C698.958 209.125 698.426 208.625 698.426 208.188C698.426 207.354 699.103 206.833 700.458 206.625C701.02 206.542 705.447 206.5 713.739 206.5L723.114 206.469H724.426Z" fill="white"/>
<path d="M39.6875 213.188V214.156C39.6875 215.865 39.1771 216.719 38.1562 216.719C37.8646 216.719 37.1875 216.01 36.125 214.594C35.0833 213.156 34.0208 212.135 32.9375 211.531C31.875 210.927 30.4896 210.625 28.7812 210.625C27.0938 210.625 26.0104 210.812 25.5312 211.188C25.0729 211.562 24.7396 212.323 24.5312 213.469C24.3438 214.615 24.25 219.583 24.25 228.375C24.25 237.167 24.3958 242.219 24.6875 243.531C25 244.844 25.8021 245.958 27.0938 246.875C28.3854 247.792 29.0312 248.552 29.0312 249.156C29.0312 249.74 28.0521 250.031 26.0938 250.031L25.0312 250L22.9688 249.969C22.2604 249.948 21.5729 249.938 20.9062 249.938L17.875 249.906C15.2292 249.906 13.5417 249.844 12.8125 249.719C12.1042 249.573 11.75 249.146 11.75 248.438C11.75 248.083 12.4167 247.479 13.75 246.625C15.1042 245.771 15.9479 244.646 16.2812 243.25C16.6354 241.833 16.8125 236.562 16.8125 227.438C16.8125 218.312 16.6875 213.302 16.4375 212.406C16.1042 211.24 14.9375 210.656 12.9375 210.656C10.9583 210.656 9.42708 210.979 8.34375 211.625C7.26042 212.25 6.21875 213.312 5.21875 214.812C4.21875 216.312 3.30208 217.062 2.46875 217.062C1.84375 217.062 1.53125 216.49 1.53125 215.344V214.406C1.53125 209.927 1.91667 207.417 2.6875 206.875C2.97917 206.667 9.13542 206.562 21.1562 206.562L36.0312 206.5C37.5938 206.5 38.5938 206.906 39.0312 207.719C39.4688 208.531 39.6875 210.354 39.6875 213.188ZM92.0275 248.844C92.0275 249.719 90.5275 250.156 87.5275 250.156H86.0275L84.4963 250.125C81.7046 250.125 79.7775 250.021 78.715 249.812C77.6525 249.604 77.1213 249.156 77.1213 248.469C77.1213 248.281 77.465 247.781 78.1525 246.969C78.8608 246.156 79.3921 245.073 79.7463 243.719C80.1004 242.365 80.2775 239.979 80.2775 236.562C80.2775 233.146 79.9025 231.104 79.1525 230.438C78.4233 229.75 75.4546 229.406 70.2463 229.406C65.0588 229.406 62.0379 229.812 61.1838 230.625C60.6213 231.146 60.34 233.219 60.34 236.844C60.34 240.469 60.465 242.844 60.715 243.969C60.9858 245.094 61.34 245.969 61.7775 246.594L62.4025 247.312C63.0483 248.042 63.3713 248.469 63.3713 248.594C63.3713 249.344 62.715 249.792 61.4025 249.938C60.8192 250 58.4754 250.031 54.3713 250.031C50.2879 250.031 48.2463 249.562 48.2463 248.625C48.2463 248.125 49.0483 247.344 50.6525 246.281C51.715 245.573 52.3504 244.625 52.5588 243.438C52.7671 242.229 52.8713 237.208 52.8713 228.375C52.8713 219.542 52.715 214.427 52.4025 213.031C52.09 211.635 51.3088 210.583 50.0588 209.875C48.8296 209.146 48.215 208.479 48.215 207.875C48.215 207.062 50.8192 206.656 56.0275 206.656H59.0588C61.9754 206.656 63.4338 207.146 63.4338 208.125C63.4338 208.208 63.0796 208.698 62.3713 209.594C61.6629 210.469 61.1629 211.552 60.8713 212.844C60.6004 214.115 60.465 216.208 60.465 219.125C60.465 222.042 60.8088 223.823 61.4963 224.469C62.1838 225.115 65.1004 225.438 70.2463 225.438C75.4129 225.438 78.3608 225.083 79.09 224.375C79.6108 223.875 79.8713 222.031 79.8713 218.844C79.8713 215.635 79.7567 213.594 79.5275 212.719C79.3192 211.844 78.9858 211.104 78.5275 210.5L77.8713 209.781C77.2254 209.094 76.9025 208.635 76.9025 208.406C76.9025 207.615 77.4754 207.146 78.6213 207C79.7671 206.854 82.3192 206.781 86.2775 206.781C90.2358 206.781 92.215 207.208 92.215 208.062C92.215 208.708 91.84 209.292 91.09 209.812C89.4025 210.958 88.4858 211.698 88.34 212.031C87.9858 212.844 87.8088 216.781 87.8088 223.844L87.59 239.281C87.59 242.177 87.7463 244.042 88.0588 244.875C88.3713 245.708 88.8921 246.344 89.6213 246.781C91.2254 247.76 92.0275 248.448 92.0275 248.844ZM128.711 206.469C132.44 206.469 134.305 208.562 134.305 212.75C134.305 213.854 134.065 214.406 133.586 214.406C133.315 214.406 132.67 214.104 131.649 213.5C130.649 212.875 129.815 212.448 129.149 212.219C126.19 211.198 123.565 210.688 121.274 210.688C118.982 210.688 117.409 211.25 116.555 212.375C115.368 213.938 114.774 216.812 114.774 221C114.774 222.5 115.284 223.615 116.305 224.344C117.326 225.073 118.493 225.438 119.805 225.438C121.138 225.438 122.482 224.99 123.836 224.094C125.211 223.177 125.909 222.719 125.93 222.719C126.972 222.719 127.68 223.125 128.055 223.938C128.451 224.75 128.649 226.073 128.649 227.906C128.649 231.135 127.909 232.75 126.43 232.75C126.034 232.75 125.211 232.25 123.961 231.25C122.711 230.229 121.388 229.719 119.993 229.719C117.597 229.719 116.003 230.229 115.211 231.25C114.69 231.917 114.43 233.917 114.43 237.25C114.43 240.583 115.024 243.021 116.211 244.562C116.878 245.417 118.472 245.844 120.993 245.844C123.513 245.844 126.451 245.302 129.805 244.219C130.743 243.927 131.493 243.583 132.055 243.188C132.618 242.792 133.19 242.375 133.774 241.938C134.357 241.479 134.722 241.25 134.868 241.25C135.576 241.25 135.93 241.604 135.93 242.312V243.312C135.93 244.917 135.649 246.24 135.086 247.281C134.545 248.302 134.045 248.958 133.586 249.25C132.732 249.792 129.336 250.062 123.399 250.062H119.274L117.899 250.031C110.045 250.031 105.513 249.948 104.305 249.781C103.097 249.594 102.493 249.125 102.493 248.375C102.493 247.896 103.055 247.292 104.18 246.562C105.305 245.833 106.034 244.917 106.368 243.812C106.701 242.708 106.868 238.385 106.868 230.844L106.993 218.625C106.993 214.625 106.743 212.146 106.243 211.188C106.013 210.75 105.368 210.25 104.305 209.688C103.243 209.125 102.711 208.625 102.711 208.188C102.711 207.354 103.388 206.833 104.743 206.625C105.305 206.542 109.732 206.5 118.024 206.5L127.399 206.469H128.711Z" fill="white"/>
</g>
<defs>
<clipPath id="clip0_1_79">
<rect width="770" height="458" fill="white"/>
</clipPath>
</defs>
</svg>
