<svg width="848" height="182" viewBox="0 0 848 182" fill="none" xmlns="http://www.w3.org/2000/svg">
<g clip-path="url(#clip0_1_85)">
<path fill-rule="evenodd" clip-rule="evenodd" d="M137 12.4147C109.999 28.2166 91.8636 57.5245 91.8636 91.0682C91.8636 124.612 109.999 153.92 137 169.722C123.516 177.613 107.82 182.136 91.0682 182.136C40.7726 182.136 0 141.364 0 91.0682C0 40.7726 40.7726 0 91.0682 0C107.82 0 123.516 4.52311 137 12.4147Z" fill="white"/>
<path d="M273.5 91.0681C273.5 141.047 232.76 181.568 182.5 181.568C132.24 181.568 91.5 141.047 91.5 91.0681C91.5 41.0889 132.24 0.568115 182.5 0.568115C232.76 0.568115 273.5 41.0889 273.5 91.0681Z" stroke="white"/>
<path d="M153.688 75.1875V76.1562C153.688 77.8646 153.177 78.7188 152.156 78.7188C151.865 78.7188 151.188 78.0104 150.125 76.5938C149.083 75.1562 148.021 74.1354 146.938 73.5312C145.875 72.9271 144.49 72.625 142.781 72.625C141.094 72.625 140.01 72.8125 139.531 73.1875C139.073 73.5625 138.74 74.3229 138.531 75.4688C138.344 76.6146 138.25 81.5833 138.25 90.375C138.25 99.1667 138.396 104.219 138.688 105.531C139 106.844 139.802 107.958 141.094 108.875C142.385 109.792 143.031 110.552 143.031 111.156C143.031 111.74 142.052 112.031 140.094 112.031L139.031 112L136.969 111.969C136.26 111.948 135.573 111.938 134.906 111.938L131.875 111.906C129.229 111.906 127.542 111.844 126.812 111.719C126.104 111.573 125.75 111.146 125.75 110.438C125.75 110.083 126.417 109.479 127.75 108.625C129.104 107.771 129.948 106.646 130.281 105.25C130.635 103.833 130.812 98.5625 130.812 89.4375C130.812 80.3125 130.688 75.3021 130.438 74.4062C130.104 73.2396 128.938 72.6562 126.938 72.6562C124.958 72.6562 123.427 72.9792 122.344 73.625C121.26 74.25 120.219 75.3125 119.219 76.8125C118.219 78.3125 117.302 79.0625 116.469 79.0625C115.844 79.0625 115.531 78.4896 115.531 77.3438V76.4062C115.531 71.9271 115.917 69.4167 116.688 68.875C116.979 68.6667 123.135 68.5625 135.156 68.5625L150.031 68.5C151.594 68.5 152.594 68.9062 153.031 69.7188C153.469 70.5312 153.688 72.3542 153.688 75.1875ZM206.028 110.844C206.028 111.719 204.528 112.156 201.528 112.156H200.028L198.496 112.125C195.705 112.125 193.778 112.021 192.715 111.812C191.653 111.604 191.121 111.156 191.121 110.469C191.121 110.281 191.465 109.781 192.153 108.969C192.861 108.156 193.392 107.073 193.746 105.719C194.1 104.365 194.278 101.979 194.278 98.5625C194.278 95.1458 193.903 93.1042 193.153 92.4375C192.423 91.75 189.455 91.4062 184.246 91.4062C179.059 91.4062 176.038 91.8125 175.184 92.625C174.621 93.1458 174.34 95.2188 174.34 98.8438C174.34 102.469 174.465 104.844 174.715 105.969C174.986 107.094 175.34 107.969 175.778 108.594L176.403 109.312C177.048 110.042 177.371 110.469 177.371 110.594C177.371 111.344 176.715 111.792 175.403 111.938C174.819 112 172.475 112.031 168.371 112.031C164.288 112.031 162.246 111.562 162.246 110.625C162.246 110.125 163.048 109.344 164.653 108.281C165.715 107.573 166.35 106.625 166.559 105.438C166.767 104.229 166.871 99.2083 166.871 90.375C166.871 81.5417 166.715 76.4271 166.403 75.0312C166.09 73.6354 165.309 72.5833 164.059 71.875C162.83 71.1458 162.215 70.4792 162.215 69.875C162.215 69.0625 164.819 68.6562 170.028 68.6562H173.059C175.975 68.6562 177.434 69.1458 177.434 70.125C177.434 70.2083 177.08 70.6979 176.371 71.5938C175.663 72.4688 175.163 73.5521 174.871 74.8438C174.6 76.1146 174.465 78.2083 174.465 81.125C174.465 84.0417 174.809 85.8229 175.496 86.4688C176.184 87.1146 179.1 87.4375 184.246 87.4375C189.413 87.4375 192.361 87.0833 193.09 86.375C193.611 85.875 193.871 84.0312 193.871 80.8438C193.871 77.6354 193.757 75.5938 193.528 74.7188C193.319 73.8438 192.986 73.1042 192.528 72.5L191.871 71.7812C191.225 71.0938 190.903 70.6354 190.903 70.4062C190.903 69.6146 191.475 69.1458 192.621 69C193.767 68.8542 196.319 68.7812 200.278 68.7812C204.236 68.7812 206.215 69.2083 206.215 70.0625C206.215 70.7083 205.84 71.2917 205.09 71.8125C203.403 72.9583 202.486 73.6979 202.34 74.0312C201.986 74.8438 201.809 78.7812 201.809 85.8438L201.59 101.281C201.59 104.177 201.746 106.042 202.059 106.875C202.371 107.708 202.892 108.344 203.621 108.781C205.225 109.76 206.028 110.448 206.028 110.844ZM242.711 68.4688C246.44 68.4688 248.305 70.5625 248.305 74.75C248.305 75.8542 248.065 76.4062 247.586 76.4062C247.315 76.4062 246.67 76.1042 245.649 75.5C244.649 74.875 243.815 74.4479 243.149 74.2188C240.19 73.1979 237.565 72.6875 235.274 72.6875C232.982 72.6875 231.409 73.25 230.555 74.375C229.368 75.9375 228.774 78.8125 228.774 83C228.774 84.5 229.284 85.6146 230.305 86.3438C231.326 87.0729 232.493 87.4375 233.805 87.4375C235.138 87.4375 236.482 86.9896 237.836 86.0938C239.211 85.1771 239.909 84.7188 239.93 84.7188C240.972 84.7188 241.68 85.125 242.055 85.9375C242.451 86.75 242.649 88.0729 242.649 89.9062C242.649 93.1354 241.909 94.75 240.43 94.75C240.034 94.75 239.211 94.25 237.961 93.25C236.711 92.2292 235.388 91.7188 233.993 91.7188C231.597 91.7188 230.003 92.2292 229.211 93.25C228.69 93.9167 228.43 95.9167 228.43 99.25C228.43 102.583 229.024 105.021 230.211 106.562C230.878 107.417 232.472 107.844 234.993 107.844C237.513 107.844 240.451 107.302 243.805 106.219C244.743 105.927 245.493 105.583 246.055 105.188C246.618 104.792 247.19 104.375 247.774 103.938C248.357 103.479 248.722 103.25 248.868 103.25C249.576 103.25 249.93 103.604 249.93 104.312V105.312C249.93 106.917 249.649 108.24 249.086 109.281C248.545 110.302 248.045 110.958 247.586 111.25C246.732 111.792 243.336 112.062 237.399 112.062H233.274L231.899 112.031C224.045 112.031 219.513 111.948 218.305 111.781C217.097 111.594 216.493 111.125 216.493 110.375C216.493 109.896 217.055 109.292 218.18 108.562C219.305 107.833 220.034 106.917 220.368 105.812C220.701 104.708 220.868 100.385 220.868 92.8438L220.993 80.625C220.993 76.625 220.743 74.1458 220.243 73.1875C220.013 72.75 219.368 72.25 218.305 71.6875C217.243 71.125 216.711 70.625 216.711 70.1875C216.711 69.3542 217.388 68.8333 218.743 68.625C219.305 68.5417 223.732 68.5 232.024 68.5L241.399 68.4688H242.711ZM322.891 98.625C323.183 98.625 325.204 94.5833 328.954 86.5C332.704 78.3958 335.016 73.6771 335.891 72.3438C336.766 71.0104 337.777 70.1146 338.923 69.6562C340.068 69.1771 341.891 68.9375 344.391 68.9375C346.912 68.9375 348.173 69.5208 348.173 70.6875L347.423 71.625L346.454 72.6562C345.829 73.4688 345.381 74.4167 345.11 75.5C344.86 76.5625 344.735 78.3229 344.735 80.7812C344.735 91.2396 345.006 98.8646 345.548 103.656C345.756 105.531 346.433 107.01 347.579 108.094C348.725 109.156 349.298 109.865 349.298 110.219L348.516 110.781C347.516 111.24 345.548 111.469 342.61 111.469C339.673 111.469 337.829 111.083 337.079 110.312L336.766 109.625C336.766 109.021 336.995 107.781 337.454 105.906C337.912 104.01 338.141 102.125 338.141 100.25C338.141 86.5833 337.704 79.75 336.829 79.75C336.391 79.75 334.402 83.9792 330.86 92.4375C327.318 100.896 325.141 105.865 324.329 107.344C323.537 108.802 322.485 109.531 321.173 109.531C320.256 109.531 317.745 104.531 313.641 94.5312C309.558 84.5104 307.162 79.5 306.454 79.5C305.87 79.5 305.579 84.6146 305.579 94.8438C305.579 99.3854 305.652 102.177 305.798 103.219C305.943 104.26 306.183 105.51 306.516 106.969C306.87 108.427 307.048 109.396 307.048 109.875C307.048 110.354 306.725 110.75 306.079 111.062C305.433 111.375 304.6 111.531 303.579 111.531H301.86C298.423 111.531 296.704 111.094 296.704 110.219C296.704 109.781 297.287 109.062 298.454 108.062C299.641 107.042 300.329 106.167 300.516 105.438C300.725 104.688 300.995 100.938 301.329 94.1875C301.662 87.4167 301.829 82.8229 301.829 80.4062C301.829 77.9896 301.683 76.3125 301.391 75.375C301.1 74.4167 300.423 73.4167 299.36 72.375C298.318 71.3333 297.798 70.5417 297.798 70C297.798 69.3333 299.725 69 303.579 69C305.058 69 306.339 69.2083 307.423 69.625C308.506 70.0208 309.568 70.9896 310.61 72.5312C311.673 74.0521 313.881 78.7812 317.235 86.7188C320.589 94.6562 322.475 98.625 322.891 98.625ZM367.419 88.875V90.5625C367.419 96 368.617 100.542 371.012 104.188C372.096 105.833 373.44 107.135 375.044 108.094C376.669 109.052 378.335 109.531 380.044 109.531H380.544C384.252 109.531 387.221 107.802 389.45 104.344C390.325 103.01 391.075 101.229 391.7 99C392.325 96.7708 392.637 94.3958 392.637 91.875V90.1562C392.637 87.3854 392.283 84.7708 391.575 82.3125C388.033 76.2708 384.127 72.5729 379.856 71.2188C378.315 71.2396 376.773 71.6042 375.231 72.3125C372.023 73.8125 369.773 76.8333 368.481 81.375C367.773 83.8958 367.419 86.3958 367.419 88.875ZM401.2 89.1875V90.6562C401.2 93.4896 400.7 96.3125 399.7 99.125C397.637 104.917 393.971 108.938 388.7 111.188C386.012 112.333 383.315 112.906 380.606 112.906H379.137C376.45 112.906 373.929 112.365 371.575 111.281C369.242 110.198 367.221 108.781 365.512 107.031C363.804 105.26 362.419 102.938 361.356 100.062C360.315 97.1875 359.794 94.3333 359.794 91.5V90.0312C359.794 87.1354 360.294 84.2917 361.294 81.5C362.294 78.6875 363.7 76.2812 365.512 74.2812C367.325 72.2812 369.523 70.7188 372.106 69.5938C374.69 68.4688 377.367 67.9062 380.137 67.9062H380.856C386.794 67.9062 391.565 69.7708 395.169 73.5C396.96 75.3542 398.408 77.7083 399.512 80.5625C400.637 83.4167 401.2 86.2917 401.2 89.1875ZM419.259 88.875V90.5625C419.259 96 420.457 100.542 422.853 104.188C423.936 105.833 425.28 107.135 426.884 108.094C428.509 109.052 430.175 109.531 431.884 109.531H432.384C436.092 109.531 439.061 107.802 441.29 104.344C442.165 103.01 442.915 101.229 443.54 99C444.165 96.7708 444.478 94.3958 444.478 91.875V90.1562C444.478 87.3854 444.123 84.7708 443.415 82.3125C439.873 76.2708 435.967 72.5729 431.696 71.2188C430.155 71.2396 428.613 71.6042 427.071 72.3125C423.863 73.8125 421.613 76.8333 420.321 81.375C419.613 83.8958 419.259 86.3958 419.259 88.875ZM453.04 89.1875V90.6562C453.04 93.4896 452.54 96.3125 451.54 99.125C449.478 104.917 445.811 108.938 440.54 111.188C437.853 112.333 435.155 112.906 432.446 112.906H430.978C428.29 112.906 425.769 112.365 423.415 111.281C421.082 110.198 419.061 108.781 417.353 107.031C415.644 105.26 414.259 102.938 413.196 100.062C412.155 97.1875 411.634 94.3333 411.634 91.5V90.0312C411.634 87.1354 412.134 84.2917 413.134 81.5C414.134 78.6875 415.54 76.2812 417.353 74.2812C419.165 72.2812 421.363 70.7188 423.946 69.5938C426.53 68.4688 429.207 67.9062 431.978 67.9062H432.696C438.634 67.9062 443.405 69.7708 447.009 73.5C448.8 75.3542 450.248 77.7083 451.353 80.5625C452.478 83.4167 453.04 86.2917 453.04 89.1875ZM502.536 104.312C502.536 107.896 502.422 109.99 502.193 110.594C501.963 111.177 501.453 111.469 500.661 111.469C498.953 111.469 496.797 109.906 494.193 106.781L493.255 105.625C491.276 103.104 489.349 100.469 487.474 97.7188C485.62 94.9688 484.349 93.1042 483.661 92.125C477.245 83.1875 473.755 78.7188 473.193 78.7188C472.755 78.7188 472.536 82.375 472.536 89.6875C472.536 97 472.838 102.167 473.443 105.188C473.651 106.271 474.099 107.333 474.786 108.375C475.495 109.396 475.849 110.083 475.849 110.438C475.849 111.333 473.734 111.781 469.505 111.781H468.068C465.109 111.781 463.63 111.406 463.63 110.656C463.63 109.906 464.265 109.177 465.536 108.469C466.828 107.74 467.64 106.76 467.974 105.531C468.307 104.281 468.474 99.9062 468.474 92.4062L468.568 87.75L468.536 83.1875C468.536 78.75 468.265 75.8438 467.724 74.4688C467.474 73.8229 466.755 73.0521 465.568 72.1562C464.38 71.2396 463.786 70.6979 463.786 70.5312C463.786 69.4271 464.911 68.875 467.161 68.875C469.432 68.875 471.224 69.1458 472.536 69.6875C473.849 70.2292 475.005 70.9792 476.005 71.9375C477.026 72.8958 479.213 75.6146 482.568 80.0938C485.943 84.5521 488.276 87.6875 489.568 89.5L492.224 93.125C495.411 97.4792 497.109 99.6562 497.318 99.6562C497.984 99.6562 498.318 96.0208 498.318 88.75C498.318 81.4792 498.172 77.0938 497.88 75.5938C497.609 74.0938 497.015 72.8542 496.099 71.875C495.203 70.875 494.755 70.3333 494.755 70.25C494.755 69.2292 495.87 68.7188 498.099 68.7188H501.068C503.713 68.7188 505.463 68.9167 506.318 69.3125C506.818 69.5417 507.068 69.9896 507.068 70.6562C507.068 70.7188 506.276 71.5312 504.693 73.0938C503.838 73.9271 503.276 74.9896 503.005 76.2812C502.734 77.5729 502.599 82.0729 502.599 89.7812L502.536 95.875V104.312ZM556.452 68.1875C562.411 68.1875 566.702 68.6771 569.327 69.6562C569.911 69.8646 570.473 70.3542 571.015 71.125C571.557 71.8958 571.827 73.2292 571.827 75.125C571.827 77.0208 571.484 78.2604 570.796 78.8438L570.171 79.1875C569.609 79.1875 568.682 78.4583 567.39 77C564.39 73.6667 560.786 72 556.577 72C552.39 72 549.036 73.6354 546.515 76.9062C544.015 80.1771 542.765 84.5312 542.765 89.9688C542.765 95.3854 544.077 99.8021 546.702 103.219C549.327 106.656 552.775 108.375 557.046 108.375C559.817 108.375 561.827 107.792 563.077 106.625C564.327 105.458 564.952 103.146 564.952 99.6875C564.952 98.3542 564.64 97.1875 564.015 96.1875C563.848 95.9167 563.432 95.4688 562.765 94.8438C562.119 94.1979 561.796 93.7917 561.796 93.625C561.796 92.7292 563.848 92.2812 567.952 92.2812C570.577 92.2812 572.317 92.4271 573.171 92.7188C574.025 92.9896 574.452 93.5104 574.452 94.2812C574.452 94.4271 574.182 94.9062 573.64 95.7188C573.098 96.5104 572.786 97.0417 572.702 97.3125C572.619 97.5833 572.442 99.375 572.171 102.688C571.921 105.979 571.557 107.958 571.077 108.625C570.619 109.292 569.463 109.906 567.609 110.469C562.88 111.927 559.39 112.656 557.14 112.656H555.89C552.973 112.656 550.223 112.156 547.64 111.156C545.057 110.135 542.859 108.719 541.046 106.906C539.234 105.094 537.775 102.76 536.671 99.9062C535.567 97.0521 535.015 94.125 535.015 91.125V89.7812C535.015 86.8438 535.598 83.9375 536.765 81.0625C538.952 75.6875 542.598 71.9688 547.702 69.9062C550.536 68.7604 553.452 68.1875 556.452 68.1875ZM608.449 93.4688V93.2812C608.449 91.3229 606.772 86.4271 603.418 78.5938C602.834 77.2396 602.532 76.5625 602.511 76.5625L601.605 78.6562C598.147 86.7188 596.418 91.6146 596.418 93.3438C596.418 93.6354 596.595 93.7917 596.949 93.8125C597.324 93.8333 597.605 93.8438 597.793 93.8438L600.23 93.9062H602.449L602.668 93.875C606.522 93.875 608.449 93.7396 608.449 93.4688ZM582.386 110.125C582.386 109.604 582.98 109 584.168 108.312C585.355 107.625 586.23 106.75 586.793 105.688C587.355 104.625 588.147 102.708 589.168 99.9375C590.188 97.1458 591.574 93.6354 593.324 89.4062C595.095 85.1771 596.49 81.3854 597.511 78.0312C598.553 74.6562 599.261 72.5208 599.636 71.625C600.49 69.5833 601.699 68.5625 603.261 68.5625H604.136C604.532 68.5625 605.022 68.7812 605.605 69.2188C606.793 70.1146 608.032 72.0312 609.324 74.9688C609.761 75.9688 610.418 77.6875 611.293 80.125C612.168 82.5417 613.918 87.2812 616.543 94.3438C619.168 101.406 620.636 105.25 620.949 105.875C621.47 106.958 622.355 107.833 623.605 108.5C624.855 109.146 625.48 109.667 625.48 110.062C625.48 110.938 624.959 111.479 623.918 111.688C623.209 111.833 621.418 111.906 618.543 111.906L616.73 111.938C612.876 111.938 610.949 111.417 610.949 110.375C610.949 110.188 611.188 109.74 611.668 109.031C612.168 108.323 612.418 107.427 612.418 106.344C612.418 105.26 612.022 103.708 611.23 101.688C610.459 99.6667 609.803 98.4167 609.261 97.9375C608.74 97.4583 606.48 97.2188 602.48 97.2188C598.48 97.2188 596.147 97.4375 595.48 97.875C594.813 98.3125 594.095 99.4896 593.324 101.406C592.553 103.323 592.168 104.885 592.168 106.094C592.168 107.281 592.532 108.333 593.261 109.25C594.011 110.167 594.386 110.646 594.386 110.688C594.386 111.438 593.105 111.812 590.543 111.812C588.001 111.812 586.001 111.719 584.543 111.531C583.105 111.323 582.386 110.854 582.386 110.125ZM634.851 111.594C634.247 111.323 633.945 110.604 633.945 109.438C633.945 108.271 637.768 102.167 645.414 91.125C653.08 80.0625 656.914 74.1458 656.914 73.375C656.914 72.5833 655.57 72.1875 652.883 72.1875C648.32 72.1875 644.872 72.5833 642.539 73.375C641.289 73.7917 640.185 74.5521 639.226 75.6562C637.33 77.8229 636.289 78.9062 636.101 78.9062C635.018 78.9062 634.476 78.0833 634.476 76.4375C634.476 73.0833 634.747 70.9167 635.289 69.9375C635.851 68.9583 637.08 68.4688 638.976 68.4688H651.32L652.57 68.5C653.403 68.5208 654.226 68.5312 655.039 68.5312L658.726 68.5625C662.185 68.5625 664.185 68.5938 664.726 68.6562C666.122 68.8229 666.82 69.2708 666.82 70C666.82 71.3333 665.987 73.3229 664.32 75.9688C664.195 76.1562 660.778 81.2812 654.07 91.3438C647.383 101.385 644.039 106.688 644.039 107.25C644.039 108.083 645.372 108.5 648.039 108.5C654.226 108.5 658.424 108.031 660.633 107.094C661.966 106.531 663.195 105.406 664.32 103.719C665.466 102.01 666.466 101.156 667.32 101.156C667.82 101.156 668.07 101.906 668.07 103.406C668.07 107.219 667.56 109.75 666.539 111C665.914 111.771 664.226 112.156 661.476 112.156H652.976L639.601 112C637.06 112 635.476 111.865 634.851 111.594ZM704.129 68.4688C707.858 68.4688 709.722 70.5625 709.722 74.75C709.722 75.8542 709.483 76.4062 709.004 76.4062C708.733 76.4062 708.087 76.1042 707.066 75.5C706.066 74.875 705.233 74.4479 704.566 74.2188C701.608 73.1979 698.983 72.6875 696.691 72.6875C694.4 72.6875 692.827 73.25 691.972 74.375C690.785 75.9375 690.191 78.8125 690.191 83C690.191 84.5 690.702 85.6146 691.722 86.3438C692.743 87.0729 693.91 87.4375 695.222 87.4375C696.556 87.4375 697.9 86.9896 699.254 86.0938C700.629 85.1771 701.327 84.7188 701.347 84.7188C702.389 84.7188 703.097 85.125 703.472 85.9375C703.868 86.75 704.066 88.0729 704.066 89.9062C704.066 93.1354 703.327 94.75 701.847 94.75C701.452 94.75 700.629 94.25 699.379 93.25C698.129 92.2292 696.806 91.7188 695.41 91.7188C693.014 91.7188 691.42 92.2292 690.629 93.25C690.108 93.9167 689.847 95.9167 689.847 99.25C689.847 102.583 690.441 105.021 691.629 106.562C692.295 107.417 693.889 107.844 696.41 107.844C698.931 107.844 701.868 107.302 705.222 106.219C706.16 105.927 706.91 105.583 707.472 105.188C708.035 104.792 708.608 104.375 709.191 103.938C709.775 103.479 710.139 103.25 710.285 103.25C710.993 103.25 711.347 103.604 711.347 104.312V105.312C711.347 106.917 711.066 108.24 710.504 109.281C709.962 110.302 709.462 110.958 709.004 111.25C708.15 111.792 704.754 112.062 698.816 112.062H694.691L693.316 112.031C685.462 112.031 680.931 111.948 679.722 111.781C678.514 111.594 677.91 111.125 677.91 110.375C677.91 109.896 678.472 109.292 679.597 108.562C680.722 107.833 681.452 106.917 681.785 105.812C682.118 104.708 682.285 100.385 682.285 92.8438L682.41 80.625C682.41 76.625 682.16 74.1458 681.66 73.1875C681.431 72.75 680.785 72.25 679.722 71.6875C678.66 71.125 678.129 70.625 678.129 70.1875C678.129 69.3542 678.806 68.8333 680.16 68.625C680.722 68.5417 685.15 68.5 693.441 68.5L702.816 68.4688H704.129ZM757.938 75.1875V76.1562C757.938 77.8646 757.427 78.7188 756.406 78.7188C756.115 78.7188 755.438 78.0104 754.375 76.5938C753.333 75.1562 752.271 74.1354 751.188 73.5312C750.125 72.9271 748.74 72.625 747.031 72.625C745.344 72.625 744.26 72.8125 743.781 73.1875C743.323 73.5625 742.99 74.3229 742.781 75.4688C742.594 76.6146 742.5 81.5833 742.5 90.375C742.5 99.1667 742.646 104.219 742.938 105.531C743.25 106.844 744.052 107.958 745.344 108.875C746.635 109.792 747.281 110.552 747.281 111.156C747.281 111.74 746.302 112.031 744.344 112.031L743.281 112L741.219 111.969C740.51 111.948 739.823 111.938 739.156 111.938L736.125 111.906C733.479 111.906 731.792 111.844 731.062 111.719C730.354 111.573 730 111.146 730 110.438C730 110.083 730.667 109.479 732 108.625C733.354 107.771 734.198 106.646 734.531 105.25C734.885 103.833 735.062 98.5625 735.062 89.4375C735.062 80.3125 734.938 75.3021 734.688 74.4062C734.354 73.2396 733.188 72.6562 731.188 72.6562C729.208 72.6562 727.677 72.9792 726.594 73.625C725.51 74.25 724.469 75.3125 723.469 76.8125C722.469 78.3125 721.552 79.0625 720.719 79.0625C720.094 79.0625 719.781 78.4896 719.781 77.3438V76.4062C719.781 71.9271 720.167 69.4167 720.938 68.875C721.229 68.6667 727.385 68.5625 739.406 68.5625L754.281 68.5C755.844 68.5 756.844 68.9062 757.281 69.7188C757.719 70.5312 757.938 72.3542 757.938 75.1875ZM803.153 75.1875V76.1562C803.153 77.8646 802.642 78.7188 801.621 78.7188C801.33 78.7188 800.653 78.0104 799.59 76.5938C798.548 75.1562 797.486 74.1354 796.403 73.5312C795.34 72.9271 793.955 72.625 792.246 72.625C790.559 72.625 789.475 72.8125 788.996 73.1875C788.538 73.5625 788.205 74.3229 787.996 75.4688C787.809 76.6146 787.715 81.5833 787.715 90.375C787.715 99.1667 787.861 104.219 788.153 105.531C788.465 106.844 789.267 107.958 790.559 108.875C791.85 109.792 792.496 110.552 792.496 111.156C792.496 111.74 791.517 112.031 789.559 112.031L788.496 112L786.434 111.969C785.725 111.948 785.038 111.938 784.371 111.938L781.34 111.906C778.694 111.906 777.007 111.844 776.278 111.719C775.569 111.573 775.215 111.146 775.215 110.438C775.215 110.083 775.882 109.479 777.215 108.625C778.569 107.771 779.413 106.646 779.746 105.25C780.1 103.833 780.278 98.5625 780.278 89.4375C780.278 80.3125 780.153 75.3021 779.903 74.4062C779.569 73.2396 778.403 72.6562 776.403 72.6562C774.423 72.6562 772.892 72.9792 771.809 73.625C770.725 74.25 769.684 75.3125 768.684 76.8125C767.684 78.3125 766.767 79.0625 765.934 79.0625C765.309 79.0625 764.996 78.4896 764.996 77.3438V76.4062C764.996 71.9271 765.382 69.4167 766.153 68.875C766.444 68.6667 772.6 68.5625 784.621 68.5625L799.496 68.5C801.059 68.5 802.059 68.9062 802.496 69.7188C802.934 70.5312 803.153 72.3542 803.153 75.1875ZM838.024 68.4688C841.753 68.4688 843.617 70.5625 843.617 74.75C843.617 75.8542 843.378 76.4062 842.899 76.4062C842.628 76.4062 841.982 76.1042 840.961 75.5C839.961 74.875 839.128 74.4479 838.461 74.2188C835.503 73.1979 832.878 72.6875 830.586 72.6875C828.295 72.6875 826.722 73.25 825.867 74.375C824.68 75.9375 824.086 78.8125 824.086 83C824.086 84.5 824.597 85.6146 825.617 86.3438C826.638 87.0729 827.805 87.4375 829.117 87.4375C830.451 87.4375 831.795 86.9896 833.149 86.0938C834.524 85.1771 835.222 84.7188 835.242 84.7188C836.284 84.7188 836.992 85.125 837.367 85.9375C837.763 86.75 837.961 88.0729 837.961 89.9062C837.961 93.1354 837.222 94.75 835.742 94.75C835.347 94.75 834.524 94.25 833.274 93.25C832.024 92.2292 830.701 91.7188 829.305 91.7188C826.909 91.7188 825.315 92.2292 824.524 93.25C824.003 93.9167 823.742 95.9167 823.742 99.25C823.742 102.583 824.336 105.021 825.524 106.562C826.19 107.417 827.784 107.844 830.305 107.844C832.826 107.844 835.763 107.302 839.117 106.219C840.055 105.927 840.805 105.583 841.367 105.188C841.93 104.792 842.503 104.375 843.086 103.938C843.67 103.479 844.034 103.25 844.18 103.25C844.888 103.25 845.242 103.604 845.242 104.312V105.312C845.242 106.917 844.961 108.24 844.399 109.281C843.857 110.302 843.357 110.958 842.899 111.25C842.045 111.792 838.649 112.062 832.711 112.062H828.586L827.211 112.031C819.357 112.031 814.826 111.948 813.617 111.781C812.409 111.594 811.805 111.125 811.805 110.375C811.805 109.896 812.367 109.292 813.492 108.562C814.617 107.833 815.347 106.917 815.68 105.812C816.013 104.708 816.18 100.385 816.18 92.8438L816.305 80.625C816.305 76.625 816.055 74.1458 815.555 73.1875C815.326 72.75 814.68 72.25 813.617 71.6875C812.555 71.125 812.024 70.625 812.024 70.1875C812.024 69.3542 812.701 68.8333 814.055 68.625C814.617 68.5417 819.045 68.5 827.336 68.5L836.711 68.4688H838.024Z" fill="white"/>
</g>
<defs>
<clipPath id="clip0_1_85">
<rect width="848" height="182" fill="white"/>
</clipPath>
</defs>
</svg>
